<svg xmlns="http://www.w3.org/2000/svg" xmlns:xlink="http://www.w3.org/1999/xlink" xmlns:fi="http://pattern.flaticon.com/" x="0" y="0" width="700" height="350" viewBox="0 0 700 350"><rect x="0px" y="0px" width="100%" height="100%" opacity="1" fill="#ffffff"/><defs><g transform="matrix(0.20338982343673706 0 0 0.20338982343673706 244 314)" id="L1_20"><path d="M197.304,64.896C172.336,53.472,162.533,29.901,172.5,0c0,0-25,0-25,20   c0-20-25-20-25-20c9.967,29.901,0.164,53.472-24.804,64.896C56.282,82.238,27.5,120.536,27.5,165c0,60.752,53.726,110,120,110   c66.273,0,120-49.248,120-110C267.5,120.536,238.719,82.238,197.304,64.896z" id="XMLID_1051_" fill="#ffad41"/><path d="M147.5,20c0-20-25-20-25-20c9.967,29.901,0.164,53.472-24.804,64.896   C56.282,82.238,27.5,120.536,27.5,165c0,60.752,53.726,110,120,110C147.5,213,147.5,36.374,147.5,20z" id="XMLID_1052_" fill="#ff9811"/><path d="M147.5,65c0,0-60,20-60,110c0,25.804,4.846,49.532,12.96,68.294   c10.991,25.409,27.977,37.144,47.04,37.144V65z" id="XMLID_1053_" fill="#bd720d"/><path d="M147.5,65c0,0,60,20,60,110c0,25.804-4.846,49.532-12.961,68.294   c-10.99,25.409-27.977,37.144-47.039,37.144V65z" id="XMLID_1054_" fill="#ff9811"/><path d="M122.639,272.63C123.953,285.201,134.581,295,147.5,295    s23.547-9.799,24.861-22.37c-8.021,1.55-16.337,2.37-24.861,2.37C138.975,275,130.66,274.179,122.639,272.63z" id="XMLID_1056_" fill="#804c09"/></g><g transform="matrix(0.23076923191547394 0 0 0.23076923191547394 60 317)" id="L1_21"><path d="M220,180c0-22.094,17.91-40,40-40V0h-30c0,16.568-13.432,30-30,30   s-30-13.432-30-30H0v50c27.614,0,50,22.386,50,50c0,27.613-22.386,50-50,50v110h110c0-11.047,8.955-20,20-20   c11.047,0,20,8.953,20,20h110v-40C237.91,220,220,202.09,220,180z" id="XMLID_1266_" fill="#ffe98f"/><path d="M130,240V0H0v50c27.614,0,50,22.386,50,50c0,27.613-22.386,50-50,50v110h110   C110,248.953,118.955,240,130,240z" id="XMLID_1267_" fill="#ffda44"/><circle cx="50" cy="210" r="20" id="XMLID_1268_" fill="#ffffff"/><circle cx="130" cy="140" r="40" id="XMLID_1269_" fill="#ffffff"/><circle cx="210" cy="90" r="10" id="XMLID_1270_" fill="#ffffff"/><circle cx="80" cy="50" r="20" id="XMLID_1271_" fill="#ffffff"/></g><g transform="matrix(0.20000000298023224 0 0 0.20000000298023224 153 148)" id="L1_22"><path d="M238.292,161.583c-35.567,17.784-55.474,36.416-66.304,59.652   c2.924-34.693,10.15-64.327,28.012-76.235h-50h-50c17.861,11.908,25.088,41.542,28.012,76.235   c-10.83-23.236-30.736-41.868-66.304-59.652l-13.416,26.833C101.081,214.811,110,238.179,110,295h80   c0-56.821,8.919-80.189,61.708-106.583L238.292,161.583z" id="XMLID_893_" fill="#91dc5a"/><path d="M150,145h-50c17.861,11.908,25.088,41.542,28.012,76.235   c-10.83-23.236-30.736-41.868-66.304-59.652l-13.416,26.833C101.081,214.811,110,238.179,110,295h40V145z" id="XMLID_894_" fill="#64c37d"/><path d="M276.742,122.761C278.841,117.24,280,111.257,280,105c0-27.614-22.386-50-50-50   c-1.931,0-3.832,0.121-5.706,0.333C212.507,25.844,183.696,5,150,5c-33.697,0-62.508,20.844-74.294,50.333   C73.832,55.121,71.931,55,70,55c-27.614,0-50,22.386-50,50c0,6.257,1.159,12.24,3.258,17.761C9.283,131.627,0,147.225,0,165   c0,27.614,22.386,50,50,50c18.949,0,35.436-10.544,43.917-26.083c11.731-6.403,20.603-17.373,24.252-30.516   C127.926,162.638,138.685,165,150,165c11.314,0,22.074-2.362,31.831-6.6c3.649,13.144,12.52,24.114,24.252,30.517   C214.564,204.456,231.051,215,250,215c27.614,0,50-22.386,50-50C300,147.225,290.717,131.627,276.742,122.761z" id="XMLID_895_" fill="#c2fb3b"/><path d="M150,5c-33.697,0-62.508,20.844-74.294,50.333C73.832,55.121,71.931,55,70,55   c-27.614,0-50,22.386-50,50c0,6.257,1.159,12.24,3.258,17.761C9.283,131.627,0,147.225,0,165c0,27.614,22.386,50,50,50   c18.949,0,35.436-10.544,43.917-26.083c11.731-6.403,20.603-17.373,24.252-30.516C127.926,162.638,138.685,165,150,165   C150,127.5,150,54,150,5z" id="XMLID_896_" fill="#91dc5a"/></g><g transform="matrix(0.1666666716337204 0 0 0.1666666716337204 -27 151)" id="L1_23"><path d="M230,35c-12.881,0-24.889,3.782-35,10.271V15c0-8.284-6.716-15-15-15   s-15,6.716-15,15v30.271C154.889,38.782,142.881,35,130,35c-8.284,0-15,6.716-15,15s6.716,15,15,15c19.299,0,35,15.701,35,35v23h30   v-23c0-19.299,15.701-35,35-35c8.284,0,15-6.716,15-15S238.284,35,230,35z" id="XMLID_879_" fill="#91dc5a"/><path d="M180,123c0,0,0-110.304,0-123c-8.284,0-15,6.716-15,15v30.271   C154.889,38.782,142.881,35,130,35c-8.284,0-15,6.716-15,15s6.716,15,15,15c19.299,0,35,15.701,35,35v23H180z" id="XMLID_880_" fill="#64c37d"/><path d="M240,200c0,110-60,160-60,160s-60-50-60-160v-60c0-33.137,26.863-60,60-60l0,0   c33.137,0,60,26.863,60,60V200z" id="XMLID_881_" fill="#ffad41"/><path d="M180,360c0,0-60-50-60-160v-60c0-33.137,26.863-60,60-60l0,0   C180,147,180,360,180,360z" id="XMLID_882_" fill="#ff9811"/><path d="M150,170h-30v20h30c5.523,0,10-4.477,10-10S155.523,170,150,170z" id="XMLID_883_" fill="#bd720d"/><path d="M210,160h30v-20h-30c-5.523,0-10,4.477-10,10S204.477,160,210,160z" id="XMLID_17_" fill="#ff9811"/><path d="M160,240c0-5.523-4.477-10-10-10h-28.446c0.735,6.961,1.714,13.624,2.89,20H150   C155.523,250,160,245.523,160,240z" id="XMLID_884_" fill="#bd720d"/><path d="M200,210c0,5.523,4.477,10,10,10h29.32c0.443-6.432,0.68-13.098,0.68-20h-30   C204.477,200,200,204.477,200,210z" id="XMLID_885_" fill="#ff9811"/></g></defs><g fi:class="KUsePattern"><pattern id="pattern_L1_20" width="350" height="350" patternUnits="userSpaceOnUse"><use xlink:href="#L1_20" x="-350" y="-350"/><use xlink:href="#L1_20" x="0" y="-350"/><use xlink:href="#L1_20" x="350" y="-350"/><use xlink:href="#L1_20" x="-350" y="0"/><use xlink:href="#L1_20" x="0" y="0"/><use xlink:href="#L1_20" x="350" y="0"/><use xlink:href="#L1_20" x="-350" y="350"/><use xlink:href="#L1_20" x="0" y="350"/><use xlink:href="#L1_20" x="350" y="350"/></pattern><rect x="0" y="0" width="100%" height="100%" fill="url(#pattern_L1_20)"/></g><g fi:class="KUsePattern"><pattern id="pattern_L1_21" width="350" height="350" patternUnits="userSpaceOnUse"><use xlink:href="#L1_21" x="-350" y="-350"/><use xlink:href="#L1_21" x="0" y="-350"/><use xlink:href="#L1_21" x="350" y="-350"/><use xlink:href="#L1_21" x="-350" y="0"/><use xlink:href="#L1_21" x="0" y="0"/><use xlink:href="#L1_21" x="350" y="0"/><use xlink:href="#L1_21" x="-350" y="350"/><use xlink:href="#L1_21" x="0" y="350"/><use xlink:href="#L1_21" x="350" y="350"/></pattern><rect x="0" y="0" width="100%" height="100%" fill="url(#pattern_L1_21)"/></g><g fi:class="KUsePattern"><pattern id="pattern_L1_22" width="350" height="350" patternUnits="userSpaceOnUse"><use xlink:href="#L1_22" x="-350" y="-350"/><use xlink:href="#L1_22" x="0" y="-350"/><use xlink:href="#L1_22" x="350" y="-350"/><use xlink:href="#L1_22" x="-350" y="0"/><use xlink:href="#L1_22" x="0" y="0"/><use xlink:href="#L1_22" x="350" y="0"/><use xlink:href="#L1_22" x="-350" y="350"/><use xlink:href="#L1_22" x="0" y="350"/><use xlink:href="#L1_22" x="350" y="350"/></pattern><rect x="0" y="0" width="100%" height="100%" fill="url(#pattern_L1_22)"/></g><g fi:class="KUsePattern"><pattern id="pattern_L1_23" width="350" height="350" patternUnits="userSpaceOnUse"><use xlink:href="#L1_23" x="-350" y="-350"/><use xlink:href="#L1_23" x="0" y="-350"/><use xlink:href="#L1_23" x="350" y="-350"/><use xlink:href="#L1_23" x="-350" y="0"/><use xlink:href="#L1_23" x="0" y="0"/><use xlink:href="#L1_23" x="350" y="0"/><use xlink:href="#L1_23" x="-350" y="350"/><use xlink:href="#L1_23" x="0" y="350"/><use xlink:href="#L1_23" x="350" y="350"/></pattern><rect x="0" y="0" width="100%" height="100%" fill="url(#pattern_L1_23)"/></g></svg>